HIERARCHY
ROOT Hips
{
	OFFSET 0.00000 0.00000 0.00000
	CHANNELS 6 Xposition Yposition Zposition Zrotation Yrotation Xrotation 
	JOINT LHipJoint
	{
		OFFSET 0 0 0
		CHANNELS 3 Zrotation Yrotation Xrotation
		JOINT LeftHip
		{
			OFFSET 1.53139 -1.83434 0.76626
			CHANNELS 3 Zrotation Yrotation Xrotation
			JOINT LeftKnee
			{
				OFFSET 2.56112 -7.03663 0.00000
				CHANNELS 3 Zrotation Yrotation Xrotation
				JOINT LeftAnkle
				{
					OFFSET 2.59983 -7.14299 0.00000
					CHANNELS 3 Zrotation Yrotation Xrotation
					JOINT LeftToe
					{
						OFFSET 0.13742 -0.37757 2.00054
						CHANNELS 3 Zrotation Yrotation Xrotation
						End Site
						{
							OFFSET 0.00000 -0.00000 1.02897
						}
					}
				}
			}
		}
	}
	JOINT RHipJoint
	{
		OFFSET 0 0 0
		CHANNELS 3 Zrotation Yrotation Xrotation
		JOINT RightHip
		{
			OFFSET -1.40122 -1.83435 0.76627
			CHANNELS 3 Zrotation Yrotation Xrotation
			JOINT RightKnee
			{
				OFFSET -2.54052 -6.98003 0.00000
				CHANNELS 3 Zrotation Yrotation Xrotation
				JOINT RightAnkle
				{
					OFFSET -2.63179 -7.23079 0.00000
					CHANNELS 3 Zrotation Yrotation Xrotation
					JOINT RightToe
					{
						OFFSET -0.24131 -0.66299 2.03908
						CHANNELS 3 Zrotation Yrotation Xrotation
						End Site
						{
							OFFSET -0.00000 -0.00000 1.07391
						}
					}
				}
			}
		}
	}
	JOINT lowerback
	{
		OFFSET 0 0 0
		CHANNELS 3 Zrotation Yrotation Xrotation
		JOINT Chest
		{
			OFFSET 0.01174 2.10302 -0.29778
			CHANNELS 3 Zrotation Yrotation Xrotation
			JOINT Chest2
			{
				OFFSET 0.00772 2.13227 -0.01247
				CHANNELS 3 Zrotation Yrotation Xrotation
				JOINT lowerneck
				{
					OFFSET 0 0 0
					CHANNELS 3 Zrotation Yrotation Xrotation
					JOINT Neck
					{
						OFFSET -0.09219 1.60848 0.31481
						CHANNELS 3 Zrotation Yrotation Xrotation
						JOINT Head
						{
							OFFSET 0.13974 1.65456 -0.31134
							CHANNELS 3 Zrotation Yrotation Xrotation
							End Site
							{
								OFFSET 0.04742 1.69515 -0.14578
							}
						}
					}
				}
				JOINT LeftCollar
				{
					OFFSET 0 0 0
					CHANNELS 3 Zrotation Yrotation Xrotation
					JOINT LeftShoulder
					{
						OFFSET 3.24909 1.02882 -0.23993
CHANNELS 3 Zrotation Xrotation Yrotation
						JOINT LeftElbow
						{
OFFSET 0 -5.329550 -0.000000
CHANNELS 3 Zrotation Xrotation Yrotation
							JOINT LeftWrist
							{
OFFSET 0 -3.692320 -0.000000
CHANNELS 3 Zrotation Xrotation Yrotation
								JOINT lhand
								{
									OFFSET 0 0 0
CHANNELS 3 Zrotation Xrotation Yrotation
									JOINT LFingers
									{
OFFSET 0 -0.536600 -0.000000
CHANNELS 3 Zrotation Xrotation Yrotation
										End Site
										{
OFFSET 0 -0.432620 -0.000000
										}
									}
								}
								JOINT LThumb
								{
OFFSET 0 0.000000 0.000000
CHANNELS 3 Zrotation Xrotation Yrotation
									End Site
									{
OFFSET 0 -0.439220 0.439220
									}
								}
							}
						}
					}
				}
				JOINT RightCollar
				{
					OFFSET 0 0 0
					CHANNELS 3 Zrotation Yrotation Xrotation
					JOINT RightShoulder
					{
						OFFSET -3.21387 0.93002 -0.34594
CHANNELS 3 Zrotation Xrotation Yrotation
						JOINT RightElbow
						{
OFFSET 0 -5.234310 0.000000
CHANNELS 3 Zrotation Xrotation Yrotation
							JOINT RightWrist
							{
OFFSET 0 -3.553010 -0.000000
CHANNELS 3 Zrotation Xrotation Yrotation
								JOINT rhand
								{
									OFFSET 0 0 0
CHANNELS 3 Zrotation Xrotation Yrotation
									JOINT RFingers
									{
OFFSET 0 -0.772520 -0.000000
CHANNELS 3 Zrotation Xrotation Yrotation
										End Site
										{
OFFSET 0 -0.622830 -0.000000
										}
									}
								}
								JOINT RThumb
								{
OFFSET 0 0.000000 0.000000
CHANNELS 3 Zrotation Xrotation Yrotation
									End Site
									{
OFFSET 0 -0.632340 0.632340
									}
								}
							}
						}
					}
				}
			}
		}
	}
}
MOTION
Frames: 9
Frame Time: 0.008333333333333333
4.482005 18.040068 6.720983 183.820673 50.215304 184.137830 0.000000 0.000000 0.000000 -23.477327 -8.348943 -21.887753 1.392643 7.465687 21.102685 0.200650 -2.021824 9.454687 0.001725 0.247952 0.681381 0.000000 0.000000 0.000000 23.952922 -5.444496 4.589573 -1.490067 -7.711454 21.841052 -0.346226 5.813369 -10.622904 -0.388199 3.995324 -11.064217 4.400901 5.983588 9.592297 -1.964244 8.432819 1.709809 -5.415034 4.213660 -2.620716 -8.880313 1.352094 -13.590708 1.894885 11.305594 45.465493 5.273987 4.853869 19.363443 0.000000 0.000000 0.000000 3.070930 11.941415 -18.776885 20.235172 -30.924542 5.651694 20.362444 16.373310 -24.596428 0.000000 0.000000 0.000000 -7.125000 0.000000 0.000000 -9.865506 55.732568 2.616536 0.000000 0.000000 0.000000 -3.091120 -8.005050 20.763867 -23.410410 -34.534567 -7.369614 -14.928158 1.648059 -8.160636 0.000000 0.000000 0.000000 7.125000 0.000000 0.000000 8.631247 21.574489 4.907493
3.601933 18.040273 7.429002 183.990204 52.103649 185.098922 0.000000 0.000000 0.000000 -21.261251 -10.162999 -23.787080 1.208428 6.973578 19.637221 0.065656 -2.138967 6.097583 0.104052 -2.058337 -5.667701 0.000000 0.000000 0.000000 24.366883 -2.883200 0.043639 -1.556918 -7.874554 22.333781 -0.524274 6.543078 -13.002152 -0.047470 1.405071 -3.864219 4.529544 5.181213 10.359548 -1.353005 7.424069 1.796889 -4.849710 3.688718 -3.140178 -10.417726 1.151511 -13.834496 0.938166 11.898933 45.580336 5.194325 4.614908 19.541869 0.000000 0.000000 0.000000 0.069020 12.777651 -14.202740 21.506512 -32.414694 6.319333 19.899417 15.835936 -25.744193 0.000000 0.000000 0.000000 -7.125000 0.000000 0.000000 -10.888983 56.797440 3.175216 0.000000 0.000000 0.000000 -4.237195 -9.647528 23.099853 -23.202124 -34.309165 -7.251954 -14.405815 1.817053 -8.161778 0.000000 0.000000 0.000000 7.125000 0.000000 0.000000 9.008152 21.595761 5.122609
2.794301 18.108374 8.026778 183.274442 52.984626 183.399902 0.000000 0.000000 0.000000 -19.045050 -14.599542 -21.508559 2.275108 9.413078 27.099228 -0.054109 -4.819285 -0.881826 0.084832 -1.877230 -5.166520 0.000000 0.000000 0.000000 23.689864 -0.961371 -3.237723 -1.910824 -8.677683 24.792341 -0.429708 6.702938 -11.875861 -0.016008 0.810353 -2.227166 4.087680 5.018334 11.649647 -1.471300 7.229741 2.218080 -4.827688 3.605788 -3.469376 -9.392576 0.096300 -12.287049 0.610199 9.144934 44.614335 4.195380 3.705267 18.755599 0.000000 0.000000 0.000000 1.916637 12.745712 -18.857393 21.517060 -32.426770 6.325027 21.297755 10.928246 -24.152006 0.000000 0.000000 0.000000 -7.125000 0.000000 0.000000 -8.697791 55.469392 2.247655 0.000000 0.000000 0.000000 -3.123025 -8.265126 20.496521 -23.652806 -34.794816 -7.507523 -15.889490 1.670273 -8.002236 0.000000 0.000000 0.000000 7.125000 0.000000 0.000000 7.941349 21.693765 4.485742
2.019362 18.229198 8.464529 182.624559 54.172355 181.597122 0.000000 0.000000 0.000000 -18.239204 -15.062041 -19.415249 4.810433 13.165594 39.994213 -0.005785 -5.232027 -3.476119 0.405298 -4.086844 -11.321056 0.000000 0.000000 0.000000 22.738284 0.768349 -5.463123 -2.115238 -9.102108 26.115370 -0.233191 6.385063 -9.059991 -0.053353 1.488819 -4.094979 3.677743 3.991576 11.753097 -1.274503 5.846789 2.734659 -4.207473 2.950922 -3.195448 -10.207896 -0.537124 -11.757238 1.233159 7.747162 44.715191 4.352558 3.038173 18.690573 0.000000 0.000000 0.000000 2.489012 12.772104 -20.330023 21.920435 -32.887043 6.542570 21.620263 13.101944 -24.330582 0.000000 0.000000 0.000000 -7.125000 0.000000 0.000000 -8.440692 55.715737 2.240103 0.000000 0.000000 0.000000 -2.549684 -5.137048 20.819325 -23.943885 -35.104824 -7.674241 -16.871464 0.039752 -7.010101 0.000000 0.000000 0.000000 7.125000 0.000000 0.000000 7.254647 22.674609 3.927918
1.250513 18.323611 8.785333 181.573337 55.992225 179.595508 0.000000 0.000000 0.000000 -18.481722 -12.203761 -14.824049 7.046804 15.370995 49.050890 -0.163730 -8.076762 -1.065637 0.474054 -4.329701 -12.016675 0.000000 0.000000 0.000000 20.800706 1.382754 -7.214450 -2.096326 -9.063909 25.995591 -0.038828 7.914165 -6.329985 -0.053786 1.496087 -4.114994 3.210572 3.038541 11.263255 -1.103250 4.510361 2.810333 -3.559547 2.292305 -3.024739 -10.320847 -1.008518 -11.211327 0.829484 6.824272 44.646059 3.978062 2.551787 18.609054 0.000000 0.000000 0.000000 3.159818 12.876045 -21.268661 22.641159 -33.694063 6.938186 19.513092 11.260502 -26.083174 0.000000 0.000000 0.000000 -7.125000 0.000000 0.000000 -11.465376 57.056273 3.417363 0.000000 0.000000 0.000000 -3.103978 -0.953769 22.258679 -23.366532 -34.487140 -7.344793 -16.522121 -0.695401 -6.608064 0.000000 0.000000 0.000000 7.125000 0.000000 0.000000 7.522903 23.104005 4.000998
0.467715 18.349367 9.066610 181.019382 58.859786 178.298105 0.000000 0.000000 0.000000 -18.606041 -8.091537 -7.427173 7.323118 15.597844 50.085730 -0.238323 -10.762651 10.768147 0.069083 1.684865 4.635775 0.000000 0.000000 0.000000 19.338809 1.627571 -8.459650 -1.807658 -8.453427 24.099862 0.229437 10.352606 -2.586412 -0.010818 0.645439 -1.773774 1.041407 2.195076 10.972328 0.360727 3.151681 2.035913 -0.659612 1.592402 -3.983452 -11.723395 -1.314017 -9.773777 0.542331 6.511597 44.761327 3.975237 2.165409 18.342114 0.000000 0.000000 0.000000 1.649806 13.494873 -20.917025 23.523628 -34.656348 7.433973 19.951201 10.284538 -26.323040 0.000000 0.000000 0.000000 -7.125000 0.000000 0.000000 -11.123669 57.391096 3.403984 0.000000 0.000000 0.000000 -5.876878 4.051401 24.002712 -22.044446 -33.026871 -6.610208 -16.503955 0.004726 -5.990296 0.000000 0.000000 0.000000 7.125000 0.000000 0.000000 7.557911 23.742796 3.908246
-0.424087 18.223740 9.316465 178.409324 62.309891 175.637878 0.000000 0.000000 0.000000 -21.024312 -5.341786 1.960107 5.335789 13.749535 42.248625 0.592728 -12.973850 24.413596 0.222569 3.029594 8.361705 0.000000 0.000000 0.000000 17.289936 2.578721 -12.170077 -1.938051 -8.735609 24.971899 0.403786 12.470017 -1.324040 -0.018520 0.856647 -2.354580 0.530980 1.385301 9.647380 -0.267813 1.974834 2.186923 -0.817267 1.015713 -3.103692 -11.908012 -1.700878 -9.708646 1.496694 5.039999 44.689132 4.177265 1.555520 18.314160 0.000000 0.000000 0.000000 3.577063 10.667051 -22.178212 23.452039 -34.579401 7.393235 19.939613 10.337045 -26.384753 0.000000 0.000000 0.000000 -7.125000 0.000000 0.000000 -11.167931 57.450599 3.434152 0.000000 0.000000 0.000000 -4.593567 5.121183 19.490649 -19.018431 -29.440518 -5.040424 -18.104105 2.159063 -3.575673 0.000000 0.000000 0.000000 7.125000 0.000000 0.000000 6.458707 26.208806 2.959048
-1.489530 17.986384 9.606044 174.998145 65.353593 172.673940 0.000000 0.000000 0.000000 -24.941561 -4.738874 11.144779 2.567547 9.958305 28.843048 -0.120081 -14.669393 19.390617 0.056950 1.415369 3.894014 0.000000 0.000000 0.000000 14.847011 6.111638 -17.180473 -2.320083 -9.503115 27.382252 0.500069 13.211209 0.041255 -0.000139 -0.033083 0.090898 -1.838484 0.371211 9.568034 0.081012 0.388393 1.908380 1.069004 0.243274 -3.392172 -12.411273 -1.997918 -9.544222 1.962115 4.129705 44.783164 4.311393 1.067330 18.384809 0.000000 0.000000 0.000000 4.385465 8.369072 -23.510336 24.316868 -35.497397 7.889846 22.230435 11.290943 -26.506516 0.000000 0.000000 0.000000 -7.125000 0.000000 0.000000 -8.765501 58.079333 2.819517 0.000000 0.000000 0.000000 -4.676828 5.509171 14.410186 -17.201757 -27.122989 -4.178935 -14.698312 3.579399 -5.456733 0.000000 0.000000 0.000000 7.125000 0.000000 0.000000 8.917564 24.343679 4.501667
-2.677428 17.826199 9.925538 169.484825 68.265966 168.541910 0.000000 0.000000 0.000000 -28.078932 -3.108379 11.538741 1.539237 7.831880 22.204632 -0.851808 -16.414029 2.617240 0.000313 -0.102342 -0.281242 0.000000 0.000000 0.000000 11.469851 9.687137 -22.425393 -2.230266 -9.330011 26.833271 0.618661 13.814692 3.997180 -0.024402 1.001565 -2.753301 -4.669103 -0.347457 9.782047 -0.007247 -0.863920 1.860091 2.727543 -0.347777 -3.474876 -12.325738 -2.416005 -10.411874 2.054403 3.118497 44.702256 4.157677 0.550473 18.663698 0.000000 0.000000 0.000000 6.086852 5.096824 -24.509936 25.596051 -36.807051 8.644473 22.416587 9.873477 -25.121380 0.000000 0.000000 0.000000 -7.125000 0.000000 0.000000 -7.928712 56.698942 2.283446 0.000000 0.000000 0.000000 -4.009941 4.797293 11.343558 -17.177834 -27.091591 -4.167962 -15.822410 2.862165 -4.923802 0.000000 0.000000 0.000000 7.125000 0.000000 0.000000 8.110121 24.861480 3.986912
